<svg xmlns="http://www.w3.org/2000/svg" xmlns:xlink="http://www.w3.org/1999/xlink" width="1920" zoomAndPan="magnify" viewBox="0 0 1440 809.999993" height="1080" preserveAspectRatio="xMidYMid meet" version="1.0"><defs><clipPath id="5ec39b7231"><path d="M 414.710938 332.523438 L 1025.210938 332.523438 L 1025.210938 469 L 414.710938 469 Z M 414.710938 332.523438 " clip-rule="nonzero"/></clipPath></defs><g clip-path="url(#5ec39b7231)"><path fill="#000000" d="M 957.511719 457.828125 L 482.566406 457.828125 C 451.015625 457.828125 425.328125 432.140625 425.328125 400.589844 C 425.328125 369.019531 451.015625 343.355469 482.566406 343.355469 L 957.511719 343.355469 C 989.082031 343.355469 1014.769531 369.019531 1014.769531 400.589844 C 1014.769531 432.140625 989.082031 457.828125 957.511719 457.828125 Z M 957.511719 332.773438 L 482.566406 332.773438 C 445.167969 332.773438 414.761719 363.195312 414.761719 400.589844 C 414.761719 437.988281 445.167969 468.394531 482.566406 468.394531 L 957.511719 468.394531 C 994.90625 468.394531 1025.335938 437.988281 1025.335938 400.589844 C 1025.335938 363.195312 994.90625 332.773438 957.511719 332.773438 " fill-opacity="1" fill-rule="nonzero"/></g><path fill="#ffffff" d="M 551.679688 400.585938 C 551.679688 422.574219 533.859375 440.394531 511.867188 440.394531 L 482.574219 440.394531 C 460.179688 440.394531 442.101562 421.910156 442.777344 399.363281 C 443.433594 377.566406 462.441406 360.773438 484.242188 360.773438 L 511.867188 360.773438 C 533.859375 360.773438 551.679688 378.601562 551.679688 400.585938 " fill-opacity="1" fill-rule="nonzero"/></svg>