<svg xmlns="http://www.w3.org/2000/svg" xmlns:xlink="http://www.w3.org/1999/xlink" width="1920" zoomAndPan="magnify" viewBox="0 0 1440 809.999993" height="1080" preserveAspectRatio="xMidYMid meet" version="1.0"><defs><clipPath id="cb5657cb7c"><path d="M 414.710938 332.523438 L 1025.210938 332.523438 L 1025.210938 469 L 414.710938 469 Z M 414.710938 332.523438 " clip-rule="nonzero"/></clipPath></defs><g clip-path="url(#cb5657cb7c)"><path fill="#000000" d="M 957.449219 457.878906 L 482.558594 457.878906 C 451.011719 457.878906 425.328125 432.183594 425.328125 400.621094 C 425.328125 369.035156 451.011719 343.359375 482.558594 343.359375 L 957.449219 343.359375 C 989.015625 343.359375 1014.699219 369.035156 1014.699219 400.621094 C 1014.699219 432.183594 989.015625 457.878906 957.449219 457.878906 Z M 957.449219 332.773438 L 482.558594 332.773438 C 445.164062 332.773438 414.761719 363.207031 414.761719 400.621094 C 414.761719 438.03125 445.164062 468.453125 482.558594 468.453125 L 957.449219 468.453125 C 994.839844 468.453125 1025.265625 438.03125 1025.265625 400.621094 C 1025.265625 363.207031 994.839844 332.773438 957.449219 332.773438 " fill-opacity="1" fill-rule="nonzero"/></g><path fill="#ff242f" d="M 551.664062 400.613281 C 551.664062 422.613281 533.847656 440.441406 511.859375 440.441406 L 482.566406 440.441406 C 460.175781 440.441406 442.101562 421.945312 442.773438 399.390625 C 443.433594 377.585938 462.433594 360.785156 484.234375 360.785156 L 511.859375 360.785156 C 533.847656 360.785156 551.664062 378.617188 551.664062 400.613281 " fill-opacity="1" fill-rule="nonzero"/></svg>