<svg xmlns="http://www.w3.org/2000/svg" xmlns:xlink="http://www.w3.org/1999/xlink" width="1920" zoomAndPan="magnify" viewBox="0 0 1440 809.999993" height="1080" preserveAspectRatio="xMidYMid meet" version="1.0"><defs><clipPath id="142e8cff5c"><path d="M 399.289062 337 L 1009.789062 337 L 1009.789062 474 L 399.289062 474 Z M 399.289062 337 " clip-rule="nonzero"/></clipPath></defs><g clip-path="url(#142e8cff5c)"><path fill="#000000" d="M 942.023438 462.496094 L 467.136719 462.496094 C 435.589844 462.496094 409.90625 436.804688 409.90625 405.242188 C 409.90625 373.660156 435.589844 347.984375 467.136719 347.984375 L 942.023438 347.984375 C 973.59375 347.984375 999.277344 373.660156 999.277344 405.242188 C 999.277344 436.804688 973.59375 462.496094 942.023438 462.496094 Z M 942.023438 337.390625 L 467.136719 337.390625 C 429.742188 337.390625 399.339844 367.832031 399.339844 405.242188 C 399.339844 442.648438 429.742188 473.066406 467.136719 473.066406 L 942.023438 473.066406 C 979.417969 473.066406 1009.84375 442.648438 1009.84375 405.242188 C 1009.84375 367.832031 979.417969 337.390625 942.023438 337.390625 " fill-opacity="1" fill-rule="nonzero"/></g><path fill="#ff242f" d="M 733.851562 405.234375 C 733.851562 427.238281 716.023438 445.0625 694.042969 445.0625 L 467.140625 445.0625 C 444.75 445.0625 426.675781 426.5625 427.351562 404.007812 C 428.007812 382.210938 447.011719 365.402344 468.8125 365.402344 L 694.042969 365.402344 C 716.023438 365.402344 733.851562 383.234375 733.851562 405.234375 " fill-opacity="1" fill-rule="nonzero"/></svg>