<svg xmlns="http://www.w3.org/2000/svg" xmlns:xlink="http://www.w3.org/1999/xlink" width="1920" zoomAndPan="magnify" viewBox="0 0 1440 809.999993" height="1080" preserveAspectRatio="xMidYMid meet" version="1.0"><defs><clipPath id="8ec149c2b7"><path d="M 414.710938 347 L 1025.210938 347 L 1025.210938 482.839844 L 414.710938 482.839844 Z M 414.710938 347 " clip-rule="nonzero"/></clipPath></defs><g clip-path="url(#8ec149c2b7)"><path fill="#000000" d="M 957.449219 472.625 L 482.558594 472.625 C 451.011719 472.625 425.328125 446.925781 425.328125 415.363281 C 425.328125 383.785156 451.011719 358.109375 482.558594 358.109375 L 957.449219 358.109375 C 989.015625 358.109375 1014.699219 383.785156 1014.699219 415.363281 C 1014.699219 446.925781 989.015625 472.625 957.449219 472.625 Z M 957.449219 347.515625 L 482.558594 347.515625 C 445.164062 347.515625 414.761719 377.957031 414.761719 415.363281 C 414.761719 452.777344 445.164062 483.195312 482.558594 483.195312 L 957.449219 483.195312 C 994.839844 483.195312 1025.265625 452.777344 1025.265625 415.363281 C 1025.265625 377.957031 994.839844 347.515625 957.449219 347.515625 " fill-opacity="1" fill-rule="nonzero"/></g><path fill="#ff242f" d="M 945.300781 415.363281 C 945.300781 437.355469 927.476562 455.191406 905.488281 455.191406 L 482.566406 455.191406 C 460.175781 455.191406 442.101562 436.691406 442.773438 414.132812 C 443.433594 392.335938 462.433594 375.527344 484.234375 375.527344 L 905.488281 375.527344 C 927.476562 375.527344 945.300781 393.363281 945.300781 415.363281 " fill-opacity="1" fill-rule="nonzero"/></svg>